<?xml version="1.0" standalone="no"?><!DOCTYPE svg PUBLIC "-//W3C//DTD SVG 1.1//EN" "http://www.w3.org/Graphics/SVG/1.1/DTD/svg11.dtd"><svg t="1622206453862" class="icon" viewBox="0 0 1024 1024" version="1.1" xmlns="http://www.w3.org/2000/svg" p-id="4252" xmlns:xlink="http://www.w3.org/1999/xlink" width="200" height="200"><defs><style type="text/css"></style></defs><path d="M909.824 367.04a481.984 481.984 0 0 0-253.632-253.632 468.608 468.608 0 0 0-184.704-37.632 36.032 36.032 0 0 0-35.968 35.968v30.72a404.224 404.224 0 0 0-123.712 30.976A416.256 416.256 0 0 0 92.8 392.448a407.232 407.232 0 0 0 0 319.04 416.256 416.256 0 0 0 219.008 219.008c50.432 21.568 104.704 32.64 159.552 32.576a411.52 411.52 0 0 0 336.832-175.36l26.368 15.232a35.968 35.968 0 0 0 49.152-13.184 476.608 476.608 0 0 0 63.808-238.016 468.608 468.608 0 0 0-37.76-184.704z m-438.464 524.096a333.248 333.248 0 0 1-131.392-26.816 344.256 344.256 0 0 1-180.992-180.992 335.232 335.232 0 0 1 0-262.656 344.256 344.256 0 0 1 181.056-180.992 332.8 332.8 0 0 1 95.296-24.896v337.216c0 12.864 6.848 24.768 17.984 31.168l292.032 168.64a340.224 340.224 0 0 1-273.984 139.328z m366.656-169.344L507.52 531.008V149.376a396.736 396.736 0 0 1 120.512 30.336 409.92 409.92 0 0 1 215.552 215.552c21.12 49.472 32 102.72 31.936 156.48 0 58.752-12.8 116.736-37.504 170.048z" p-id="4253"></path></svg>